<?xml version="1.0" standalone="no"?>
<!DOCTYPE svg PUBLIC "-//W3C//DTD SVG 20010904//EN"
 "http://www.w3.org/TR/2001/REC-SVG-20010904/DTD/svg10.dtd">
<svg version="1.0" xmlns="http://www.w3.org/2000/svg"
 width="1200.000000pt" height="1200.000000pt" viewBox="0 0 1200.000000 1200.000000"
 preserveAspectRatio="xMidYMid meet">

<g transform="translate(0.000000,1200.000000) scale(0.100000,-0.100000)"
fill="#000000" stroke="none">
<path d="M5545 8969 c-236 -138 -745 -433 -1130 -656 -385 -223 -706 -412
-714 -419 -11 -10 -15 -88 -19 -394 l-5 -383 44 26 c24 14 175 102 334 195
372 218 906 529 1450 845 237 137 441 258 454 267 22 15 25 26 27 86 2 56 5
625 4 672 0 6 -3 12 -7 12 -5 -1 -201 -114 -438 -251z"/>
<path d="M5605 7694 c-558 -324 -714 -415 -777 -449 -51 -27 -248 -142 -908
-529 l-225 -132 -6 -89 c-3 -50 -6 -225 -8 -389 l-2 -299 23 15 c13 8 161 95
330 194 169 98 406 237 525 307 120 70 229 133 243 140 14 6 178 101 365 211
187 109 444 259 570 333 127 74 234 138 239 144 6 5 11 39 12 76 2 55 5 625 4
671 0 6 -3 12 -7 12 -5 -1 -174 -98 -378 -216z"/>
<path d="M7994 7701 c-177 -103 -334 -197 -350 -208 -16 -11 -126 -75 -244
-143 -522 -299 -828 -476 -865 -500 -22 -15 -147 -89 -277 -164 -131 -76 -238
-141 -239 -145 -10 -68 -12 -751 -2 -751 4 0 267 150 583 334 316 183 589 340
605 349 28 14 318 183 880 513 l220 129 5 95 c6 103 13 680 8 679 -2 0 -148
-85 -324 -188z"/>
<path d="M7985 6386 c-170 -101 -679 -398 -1130 -661 -451 -262 -825 -483
-831 -491 -7 -9 -12 -133 -13 -376 -1 -199 -5 -366 -8 -372 -4 -5 2 -7 13 -4
10 3 395 223 854 490 459 267 966 561 1125 653 160 92 296 174 304 180 20 19
30 765 10 764 -8 -1 -153 -83 -324 -183z"/>
<path d="M2740 3115 l0 -485 70 0 70 0 0 170 0 169 348 3 c342 3 348 3 384 26
20 13 47 40 60 60 22 35 23 46 23 227 0 181 -1 192 -23 227 -13 20 -40 47 -60
60 -37 23 -39 23 -454 26 l-418 3 0 -486z m810 316 c15 -29 13 -273 -2 -294
-12 -16 -41 -17 -338 -15 l-325 3 -3 150 c-1 82 0 155 2 162 4 10 74 13 330
13 311 0 326 -1 336 -19z"/>
<path d="M5920 3115 l0 -485 440 0 440 0 0 75 0 75 -370 0 -370 0 0 130 0 130
295 0 295 0 0 75 0 75 -295 0 -295 0 0 130 0 130 370 0 370 0 0 75 0 75 -440
0 -440 0 0 -485z"/>
<path d="M7120 3115 l0 -485 70 0 70 0 2 386 3 385 323 -385 323 -386 85 0 84
0 0 485 0 485 -70 0 -70 0 0 -385 c0 -212 -3 -385 -7 -385 -5 0 -152 173 -328
385 l-320 385 -82 0 -83 0 0 -485z"/>
<path d="M8350 3525 l0 -75 205 0 205 0 0 -410 0 -410 70 0 70 0 0 410 0 410
205 0 205 0 0 75 0 75 -480 0 -480 0 0 -75z"/>
<path d="M4075 3395 c-49 -17 -90 -62 -104 -112 -7 -23 -11 -160 -11 -345 l0
-308 70 0 70 0 0 303 c0 222 3 306 12 315 9 9 74 12 229 12 l218 0 3 28 c2 15
1 48 0 75 l-4 47 -221 0 c-165 -1 -232 -5 -262 -15z"/>
<path d="M4937 3396 c-50 -18 -76 -42 -98 -91 -16 -35 -19 -68 -19 -285 0
-270 6 -302 65 -348 48 -38 94 -43 353 -40 238 3 248 4 284 26 20 13 47 40 60
60 22 36 23 43 23 302 0 259 -1 266 -23 302 -13 20 -40 47 -60 60 -36 22 -45
23 -292 25 -198 2 -264 0 -293 -11z m523 -155 c6 -12 10 -101 10 -221 0 -120
-4 -209 -10 -221 -10 -18 -24 -19 -249 -19 -209 0 -240 2 -245 16 -3 9 -6 109
-6 224 0 115 3 215 6 224 5 14 36 16 245 16 225 0 239 -1 249 -19z"/>
</g>
</svg>
